<?xml version="1.0" encoding="utf-8"?>
<!-- Generator: Adobe Illustrator 26.0.2, SVG Export Plug-In . SVG Version: 6.00 Build 0)  -->
<svg version="1.1" id="Calque_1" xmlns="http://www.w3.org/2000/svg" xmlns:xlink="http://www.w3.org/1999/xlink" x="0px" y="0px"
	 viewBox="0 0 24 24" style="enable-background:new 0 0 24 24;" xml:space="preserve">
<style type="text/css">
	.st0{fill:#615EF0;stroke:#000000;stroke-width:1.5;stroke-linecap:round;stroke-linejoin:round;stroke-miterlimit:10;}
</style>
<path class="st0" d="M20.1,9.2c-1.8,0-2.5-1.3-1.6-2.8c0.5-0.9,0.2-2.1-0.7-2.6l-1.7-1c-0.8-0.5-1.8-0.2-2.3,0.6l-0.1,0.2
	c-0.9,1.6-2.4,1.6-3.3,0l-0.1-0.2C9.8,2.6,8.8,2.3,8,2.8l-1.7,1C5.3,4.3,5,5.5,5.5,6.4c0.9,1.6,0.2,2.8-1.6,2.8
	C2.8,9.2,2,10.1,2,11.1v1.8c0,1,0.8,1.9,1.9,1.9c1.8,0,2.5,1.3,1.6,2.8c-0.3,0.4-0.3,1-0.2,1.4c0.1,0.5,0.4,0.9,0.9,1.2l1.7,1
	c0.8,0.5,1.8,0.2,2.3-0.6l0.1-0.2c0.9-1.6,2.4-1.6,3.3,0l0.1,0.2c0.5,0.8,1.5,1.1,2.3,0.6l1.7-1c0.9-0.5,1.2-1.7,0.7-2.6
	c-0.9-1.6-0.2-2.8,1.6-2.8c1,0,1.9-0.9,1.9-1.9v-1.8C22,10.1,21.2,9.2,20.1,9.2z M14.1,14.1C13.6,14.7,12.8,15,12,15
	s-1.6-0.3-2.1-0.9C9.3,13.6,9,12.8,9,12s0.3-1.6,0.9-2.1S11.2,9,12,9s1.6,0.3,2.1,0.9c0.6,0.6,0.9,1.3,0.9,2.1S14.7,13.6,14.1,14.1z
	"/>
</svg>
